<svg width="50" height="48" viewBox="0 0 50 48" fill="none" xmlns="http://www.w3.org/2000/svg">
<path d="M23.2797 5.27788C23.8584 3.97943 24.1479 3.3302 24.5509 3.13028C24.9009 2.95657 25.3119 2.95657 25.6619 3.13028C26.0649 3.3302 26.3544 3.97943 26.9332 5.27788L31.5432 15.6202C31.7144 16.0041 31.7999 16.196 31.9324 16.343C32.0494 16.473 32.1927 16.577 32.3524 16.6482C32.5332 16.7287 32.7422 16.7508 33.1602 16.7949L44.4209 17.9834C45.8347 18.1326 46.5414 18.2072 46.8562 18.5287C47.1294 18.8079 47.2564 19.1989 47.1994 19.5855C47.1339 20.0305 46.6059 20.5062 45.5499 21.458L37.1382 29.0385C36.8262 29.3197 36.6699 29.4605 36.5712 29.6318C36.4837 29.7835 36.4289 29.9517 36.4107 30.1257C36.3899 30.3225 36.4334 30.528 36.5207 30.9393L38.8702 42.016C39.1652 43.4067 39.3127 44.102 39.1042 44.5005C38.9229 44.847 38.5904 45.0885 38.2052 45.1537C37.7617 45.2287 37.1459 44.8738 35.9144 44.1635L26.1057 38.506C25.7417 38.296 25.5597 38.1912 25.3662 38.15C25.1949 38.1137 25.0179 38.1137 24.8467 38.15C24.6532 38.1912 24.4712 38.296 24.1072 38.506L14.2985 44.1635C13.067 44.8738 12.4513 45.2287 12.0078 45.1537C11.6225 45.0885 11.2899 44.847 11.1088 44.5005C10.9003 44.102 11.0478 43.4067 11.3428 42.016L13.6922 30.9393C13.7794 30.528 13.823 30.3225 13.8023 30.1257C13.784 29.9517 13.7293 29.7835 13.6418 29.6318C13.5429 29.4605 13.3868 29.3197 13.0746 29.0385L4.66308 21.458C3.60706 20.5062 3.07903 20.0305 3.01338 19.5855C2.95638 19.1989 3.08341 18.8079 3.35676 18.5287C3.67146 18.2072 4.37833 18.1326 5.79208 17.9834L17.0528 16.7949C17.4708 16.7508 17.6797 16.7287 17.8604 16.6482C18.0203 16.577 18.1634 16.473 18.2806 16.343C18.413 16.196 18.4985 16.0041 18.6696 15.6202L23.2797 5.27788Z" stroke="#414141" stroke-width="5" stroke-linecap="round" stroke-linejoin="round"/>
</svg>
