<svg width="56" height="40" viewBox="0 0 56 40" fill="none" xmlns="http://www.w3.org/2000/svg">
<path d="M33 15C33 13.6193 31.8807 12.5 30.5 12.5H29.25C21.6561 12.5 15.5 18.656 15.5 26.25C15.5 33.844 21.6561 40 29.25 40H41.75C49.344 40 55.5 33.844 55.5 26.25C55.5 20.0227 51.3602 14.7622 45.6825 13.0706C44.2745 12.6511 43 13.8222 43 15.2915V15.4207C43 16.6647 43.9362 17.6838 45.0862 18.1585C48.2637 19.47 50.5 22.5987 50.5 26.25C50.5 31.0825 46.5825 35 41.75 35H29.25C24.4175 35 20.5 31.0825 20.5 26.25C20.5 21.4175 24.4175 17.5 29.25 17.5H30.5C31.8807 17.5 33 16.3807 33 15Z" fill="#414141"/>
<path d="M26.75 0C34.344 0 40.5 6.15608 40.5 13.75C40.5 21.344 34.344 27.5 26.75 27.5H25.5C24.1193 27.5 23 26.3807 23 25C23 23.6193 24.1193 22.5 25.5 22.5H26.75C31.5825 22.5 35.5 18.5825 35.5 13.75C35.5 8.9175 31.5825 5 26.75 5H14.25C9.4175 5 5.5 8.9175 5.5 13.75C5.5 17.4013 7.73628 20.53 10.9138 21.8415C12.0637 22.316 13 23.3353 13 24.5793V24.7085C13 26.1777 11.7256 27.349 10.3175 26.9295C4.6398 25.2378 0.5 19.9773 0.5 13.75C0.5 6.15608 6.65608 0 14.25 0H26.75Z" fill="#414141"/>
</svg>
