<svg width="50" height="48" viewBox="0 0 50 48" fill="none" xmlns="http://www.w3.org/2000/svg">
<path d="M5 47.5H29.05C30.4927 47.5008 31.9184 47.189 33.2291 46.5861C34.5398 45.9832 35.7043 45.1035 36.6425 44.0075L49.3975 29.1275C49.6646 28.8165 49.8511 28.4445 49.9406 28.0444C50.03 27.6443 50.0197 27.2283 49.9106 26.8332C49.8014 26.438 49.5967 26.0757 49.3145 25.7783C49.0324 25.4808 48.6814 25.2574 48.2925 25.1275L43.3725 23.4875C42.1834 23.101 40.9173 23.0135 39.6863 23.2329C38.4554 23.4522 37.2974 23.9716 36.315 24.745L28.3525 31.1125L26.81 28.025C25.9836 26.3607 24.7077 24.9611 23.1268 23.9846C21.5459 23.0081 19.7232 22.4938 17.865 22.5H5C2.2425 22.5 0 24.7425 0 27.5V42.5C0 45.2575 2.2425 47.5 5 47.5ZM5 27.5H17.865C19.7725 27.5 21.485 28.5575 22.3375 30.2625L23.455 32.5H12.5V37.5H27.535C27.9196 37.4949 28.2979 37.4008 28.64 37.225L28.6475 37.2225L28.6575 37.2175H28.665L28.67 37.215H28.68L28.6825 37.2125C28.705 37.22 28.69 37.21 28.69 37.21C28.715 37.21 28.695 37.2075 28.695 37.2075H28.6975L28.7025 37.205L28.71 37.2025L28.715 37.2L28.72 37.1975L28.7275 37.195L28.7325 37.1925C28.74 37.1925 28.735 37.19 28.7375 37.19L28.745 37.185L28.75 37.1825L28.755 37.18L28.7625 37.1775L28.7675 37.175H28.77L28.775 37.1725L28.7825 37.17L28.7875 37.1675C28.81 37.165 28.795 37.165 28.795 37.165L28.8 37.1625C28.8963 37.1044 28.9883 37.0392 29.075 36.9675L39.44 28.675C40.095 28.155 40.9975 27.9925 41.79 28.2575L43.1825 28.7225L32.85 40.78C32.3747 41.3197 31.7901 41.7522 31.135 42.0487C30.4798 42.3452 29.7691 42.4991 29.05 42.5H5V27.5ZM35 2.35143e-05H34.9575C34.55 0.00502351 32.4425 0.0975233 30 1.76252C27.6225 0.142523 25.565 0.0125233 25.08 0.00252333L25.005 2.35143e-05H24.995C22.9925 2.35143e-05 21.1075 0.782524 19.6975 2.19502C18.2825 3.61252 17.5 5.49502 17.5 7.50002C17.5 9.50502 18.2825 11.3875 19.6525 12.76L28.1875 21.725C28.4223 21.9688 28.7039 22.1627 29.0155 22.295C29.327 22.4273 29.6621 22.4954 30.0005 22.4952C30.339 22.495 30.674 22.4264 30.9853 22.2936C31.2967 22.1609 31.578 21.9666 31.8125 21.7225L40.3025 12.8025C41.72 11.3875 42.5 9.50502 42.5 7.50002C42.5 5.49502 41.7175 3.61252 40.305 2.19752C39.6108 1.49889 38.785 0.944921 37.8752 0.567712C36.9654 0.190503 35.9899 -0.00245165 35.005 2.35143e-05H35ZM37.5 7.50002C37.5 8.16752 37.24 8.79502 36.7225 9.31252L30 16.375L23.2325 9.26752C22.76 8.79502 22.5 8.16752 22.5 7.50002C22.5 6.83252 22.76 6.20502 23.235 5.73002C23.6871 5.27016 24.3027 5.00775 24.9475 5.00002C25.01 5.00252 26.2025 5.08002 27.615 6.21252C27.8175 6.37502 28.0225 6.56002 28.2325 6.76752L30 8.53502L31.7675 6.76752C31.9775 6.56002 32.1825 6.37502 32.385 6.21252C33.7075 5.15002 34.825 5.01752 35.015 5.00252C35.3408 5.00246 35.6635 5.06694 35.9643 5.19224C36.2651 5.31753 36.5381 5.50116 36.7675 5.73252C37.24 6.20502 37.5 6.83252 37.5 7.50002Z" fill="#414141"/>
</svg>
