<svg width="60" height="60" viewBox="0 0 60 60" fill="none" xmlns="http://www.w3.org/2000/svg">
<g clip-path="url(#clip0_173_39)">
<path d="M60 53.3333C60 55.1014 59.2976 56.7971 58.0474 58.0474C56.7971 59.2976 55.1014 60 53.3333 60H6.66667C4.89856 60 3.20286 59.2976 1.95262 58.0474C0.702379 56.7971 0 55.1014 0 53.3333V6.66667C0 4.89856 0.702379 3.20286 1.95262 1.95262C3.20286 0.702379 4.89856 0 6.66667 0L53.3333 0C55.1014 0 56.7971 0.702379 58.0474 1.95262C59.2976 3.20286 60 4.89856 60 6.66667V53.3333Z" fill="white"/>
<path d="M21 19.0624C21 19.0624 30.1917 13.36 47.4783 12.8445C48.3003 12.8194 50 12.8057 50 14.057C42.4348 25.3191 38.6522 42.838 38.6522 42.838L21 19.0624Z" fill="#F4900C"/>
<path d="M23 27.8353C23 27.8353 37.7273 14.0816 47.5455 12.87C48.3395 12.7713 50 12.8313 50 14.0816C41.4091 19.083 35.2727 37.838 35.2727 37.838L23 27.8353Z" fill="#FFAC33"/>
<path d="M26.2893 23.3911C27.312 24.2908 29.2459 24.8316 30.5868 24.594L36.6438 23.5223C37.986 23.2847 38.6409 24.1139 38.1023 25.3638L35.6657 31.0107C35.1259 32.2607 35.2088 34.2655 35.8489 35.4684L38.74 40.8939C39.3813 42.0968 38.7945 42.9754 37.4387 42.8492L31.3136 42.2762C29.9579 42.15 28.0747 42.848 27.13 43.8281L22.8584 48.2548C21.9137 49.235 20.8959 48.9503 20.5963 47.6212L19.248 41.6228C18.9496 40.2949 17.7028 38.7207 16.4782 38.1242L10.9475 35.4325C9.72296 34.8373 9.67962 33.7804 10.8509 33.0861L16.1427 29.9502C17.314 29.2559 18.4271 27.5852 18.6153 26.2363L19.4684 20.1475C19.6565 18.7986 20.6483 18.431 21.671 19.3307L26.2893 23.3911Z" fill="#FFD983"/>
</g>
<defs>
<clipPath id="clip0_173_39">
<rect width="60" height="60" fill="white"/>
</clipPath>
</defs>
</svg>
